<svg width="611" height="136" viewBox="0 0 611 136" fill="none" xmlns="http://www.w3.org/2000/svg">
<path d="M178.972 106L209.428 30.4H220.768L251.224 106H239.884L231.784 85.804H198.412L190.312 106H178.972ZM202.084 76.3H228.112L215.152 43.792L202.084 76.3ZM259.273 106V60.532H249.661V52H259.273V46.06C259.273 40.372 260.641 36.088 263.377 33.208C266.113 30.256 270.253 28.78 275.797 28.78C277.453 28.78 279.253 29.068 281.197 29.644C283.141 30.148 285.121 30.868 287.137 31.804L283.357 39.688C281.845 38.968 280.513 38.464 279.361 38.176C278.281 37.816 277.345 37.636 276.553 37.636C274.177 37.636 272.413 38.428 271.261 40.012C270.109 41.524 269.533 43.9 269.533 47.14V52H284.437V60.532H269.533V106H259.273ZM309.922 107.296C304.522 107.296 300.346 105.928 297.394 103.192C294.442 100.384 292.966 96.388 292.966 91.204V60.856H283.786V52H292.966V35.152H303.226V52H318.562V60.856H303.226V89.692C303.226 92.356 303.874 94.408 305.17 95.848C306.538 97.216 308.482 97.9 311.002 97.9C311.722 97.9 312.514 97.756 313.378 97.468C314.242 97.18 315.286 96.604 316.51 95.74L320.398 103.732C318.526 104.956 316.726 105.856 314.998 106.432C313.342 107.008 311.65 107.296 309.922 107.296ZM348.573 107.296C343.317 107.296 338.673 106.108 334.641 103.732C330.609 101.284 327.441 97.936 325.137 93.688C322.833 89.44 321.681 84.544 321.681 79C321.681 73.456 322.833 68.56 325.137 64.312C327.441 60.064 330.609 56.752 334.641 54.376C338.745 51.928 343.425 50.704 348.681 50.704C353.649 50.704 358.005 51.964 361.749 54.484C365.493 56.932 368.409 60.46 370.497 65.068C372.657 69.604 373.737 74.968 373.737 81.16H332.157C332.517 86.488 334.281 90.664 337.449 93.688C340.689 96.64 344.649 98.116 349.329 98.116C352.929 98.116 355.917 97.288 358.293 95.632C360.741 93.904 362.649 91.744 364.017 89.152L372.873 93.256C371.433 96.064 369.561 98.548 367.257 100.708C364.953 102.796 362.217 104.416 359.049 105.568C355.953 106.72 352.461 107.296 348.573 107.296ZM332.805 73.06H362.721C362.505 70.18 361.713 67.768 360.345 65.824C359.049 63.808 357.357 62.26 355.269 61.18C353.253 60.1 350.985 59.56 348.465 59.56C346.017 59.56 343.641 60.1 341.337 61.18C339.033 62.188 337.089 63.7 335.505 65.716C333.993 67.732 333.093 70.18 332.805 73.06ZM378.473 106V52H388.733V61.72C390.893 58.336 393.665 55.852 397.049 54.268C400.505 52.612 404.105 51.784 407.849 51.784V61.504C404.609 61.504 401.513 62.008 398.561 63.016C395.681 63.952 393.305 65.536 391.433 67.768C389.633 69.928 388.733 72.88 388.733 76.624V106H378.473ZM431.57 107.296C426.17 107.296 421.994 105.928 419.042 103.192C416.09 100.384 414.614 96.388 414.614 91.204V60.856H405.434V52H414.614V35.152H424.874V52H440.21V60.856H424.874V89.692C424.874 92.356 425.522 94.408 426.818 95.848C428.186 97.216 430.13 97.9 432.65 97.9C433.37 97.9 434.162 97.756 435.026 97.468C435.89 97.18 436.934 96.604 438.158 95.74L442.046 103.732C440.174 104.956 438.374 105.856 436.646 106.432C434.99 107.008 433.298 107.296 431.57 107.296ZM470.761 107.296C465.361 107.296 460.609 106.108 456.505 103.732C452.401 101.284 449.161 97.936 446.785 93.688C444.481 89.44 443.329 84.544 443.329 79C443.329 73.456 444.481 68.56 446.785 64.312C449.089 60.064 452.293 56.752 456.397 54.376C460.501 51.928 465.217 50.704 470.545 50.704C475.873 50.704 480.589 51.928 484.693 54.376C488.797 56.752 492.001 60.064 494.305 64.312C496.609 68.56 497.761 73.456 497.761 79C497.761 84.544 496.609 89.44 494.305 93.688C492.001 97.936 488.797 101.284 484.693 103.732C480.661 106.108 476.017 107.296 470.761 107.296ZM470.761 97.9C474.001 97.9 476.881 97.108 479.401 95.524C481.921 93.868 483.865 91.636 485.233 88.828C486.673 86.02 487.393 82.744 487.393 79C487.393 75.256 486.673 71.98 485.233 69.172C483.865 66.364 481.885 64.168 479.293 62.584C476.701 60.928 473.785 60.1 470.545 60.1C467.233 60.1 464.317 60.928 461.797 62.584C459.277 64.168 457.297 66.364 455.857 69.172C454.417 71.98 453.697 75.256 453.697 79C453.697 82.744 454.417 86.02 455.857 88.828C457.297 91.636 459.313 93.868 461.905 95.524C464.497 97.108 467.449 97.9 470.761 97.9ZM503.601 106V52H513.213L513.645 59.884C515.445 56.932 517.749 54.664 520.557 53.08C523.437 51.496 526.713 50.704 530.385 50.704C534.633 50.704 538.305 51.568 541.401 53.296C544.569 55.024 546.981 57.724 548.637 61.396C550.365 64.996 551.229 69.748 551.229 75.652V106H540.969V78.352C540.969 73.456 540.393 69.748 539.241 67.228C538.161 64.636 536.613 62.836 534.597 61.828C532.653 60.82 530.385 60.28 527.793 60.208C523.401 60.208 519.981 61.756 517.533 64.852C515.085 67.948 513.861 72.304 513.861 77.92V106H503.601ZM582.608 107.296C577.352 107.296 572.708 106.108 568.676 103.732C564.644 101.284 561.476 97.936 559.172 93.688C556.868 89.44 555.716 84.544 555.716 79C555.716 73.456 556.868 68.56 559.172 64.312C561.476 60.064 564.644 56.752 568.676 54.376C572.78 51.928 577.46 50.704 582.716 50.704C587.684 50.704 592.04 51.964 595.784 54.484C599.528 56.932 602.444 60.46 604.532 65.068C606.692 69.604 607.772 74.968 607.772 81.16H566.192C566.552 86.488 568.316 90.664 571.484 93.688C574.724 96.64 578.684 98.116 583.364 98.116C586.964 98.116 589.952 97.288 592.328 95.632C594.776 93.904 596.684 91.744 598.052 89.152L606.908 93.256C605.468 96.064 603.596 98.548 601.292 100.708C598.988 102.796 596.252 104.416 593.084 105.568C589.988 106.72 586.496 107.296 582.608 107.296ZM566.84 73.06H596.756C596.54 70.18 595.748 67.768 594.38 65.824C593.084 63.808 591.392 62.26 589.304 61.18C587.288 60.1 585.02 59.56 582.5 59.56C580.052 59.56 577.676 60.1 575.372 61.18C573.068 62.188 571.124 63.7 569.54 65.716C568.028 67.732 567.128 70.18 566.84 73.06Z" fill="#9E9E9E"/>
<rect width="136" height="136" rx="40" fill="#9E9E9E"/>
<path d="M40 136L40 -6.25849e-06" stroke="#222222" stroke-width="21"/>
<path d="M96 136L96 -6.25849e-06" stroke="#222222" stroke-width="21"/>
<path d="M103 95L40 95" stroke="#222222" stroke-width="21"/>
<path d="M33 42L96 42" stroke="#222222" stroke-width="21"/>
</svg>
